# xmcd CD database file
# Generated: Wed Oct 3 14:34:32 2001 by KSCD
# 
# Track frame offsets:
#       150
#       9985
#       22004
#       54281
#       78861
#       94715
#       109926
#       124662
#       139517
#       152585
#       182452
#       194548
#       205938
#       223015
#       242091
#       254003
#       283180
#
# Disc length: 3999 seconds
#
# Revision: 4
# Processed by: cddbd v1.4PL0 Copyright (c) Steve Scherf et al.
# Submitted via: Kscd 1.3.1
#
DISCID=e90f9d11
DTITLE=Various Artist - The Blues Box CD 2
DYEAR=1900
DGENRE=
TTITLE0=Chuck Berry - Worried life blues
TTITLE1=Otis Rush - You know my love
TTITLE2=Buddy Guy - Stone Crazy
TTITLE3=Byther Smith - Hold That Train
TTITLE4=Buddy Reed - Blues For Mud
TTITLE5=Jimmy Reed - Down At The Corner Grocery Store
TTITLE6=Bobby Bland - Stormy monday
TTITLE7=Tommy Tucker - Drunk
TTITLE8=Lowell Fulson - Do me right
TTITLE9=Luther Allison - You upset me baby
TTITLE10=Ike Turner - Prancin'
TTITLE11=Earl Hooker - The Leading Brand
TTITLE12=Matt Guitar Murphy - Taking off
TTITLE13=Big Brother and the Holding Company - Piece of my heart
TTITLE14=Bobby Bland - Ain't nothing you can do
TTITLE15=Brown Charles - These blues
TTITLE16=Alexis Korner - Hammer and nails
EXTD=
EXTT0=
EXTT1=
EXTT2=
EXTT3=
EXTT4=
EXTT5=
EXTT6=
EXTT7=
EXTT8=
EXTT9=
EXTT10=
EXTT11=
EXTT12=
EXTT13=
EXTT14=
EXTT15=
EXTT16=
PLAYORDER=
